PathFileType	4	(X/Y/Z)	/home/abdul/Desktop/myosuite/custom_workspace/IK/output/S4_12_3.trc
DataRate	CameraRate	NumFrames	NumMarkers	Units	OrigDataRate	OrigDataStartFrame	OrigNumFrames
200.0	200.0	56	3	mm	200.0	1	923
Frame#	Time	V_Shoulder			V_Elbow			V_Wrist		
		X1	Y1	Z1	X2	Y2	Z2	X3	Y3	Z3

1	0.0	-100.06300070708187	589.4601559516558	270.20955780136933	-189.58632250951752	422.1541513411205	36.425803745762785	-214.79851662974403	200.19705395755997	26.373153041035504
2	0.005	-100.05908398991835	589.4905040984785	270.22554314749567	-189.58795620360388	422.0872879548125	36.50558187473431	-214.7806397945283	200.12703074698084	26.333077467295446
3	0.01	-100.05513565361942	589.5203228670113	270.2408642621768	-189.588871119977	422.01793291742143	36.58565608404877	-214.76552835626111	200.05333418212876	26.288352496116808
4	0.015	-100.05115506936875	589.5494945576457	270.2554548987061	-189.5889879595137	421.9462468999746	36.665725182698665	-214.7533961490658	199.97609325707992	26.238949331431694
5	0.02	-100.04714103250309	589.5778984645455	270.26924896404125	-189.58822475562752	421.8724089740475	36.74547182098742	-214.74445623354816	199.8954591316777	26.184858190943643
6	0.025	-100.0430917183018	589.6054111294401	270.28218074012165	-189.58649699934244	421.79661690555645	36.824562794625606	-214.73892001608561	199.81160573759237	26.1260893828737
7	0.03	-100.03900463777865	589.631906610996	270.29418510869783	-189.5837177787042	421.71908739556545	36.902649414114784	-214.73699633067375	199.72473033063625	26.062674360547618
8	0.035	-100.03487659361815	589.6572567692034	270.3051977788311	-189.5797979325167	421.6400562648894	36.97936794061804	-214.73889048507985	199.63505398487513	25.994666749835346
9	0.04	-100.03070363639773	589.6813315641457	270.31515551620413	-189.5746462183107	421.5597785793344	37.05434008932358	-214.7448032732786	199.5428220240977	25.92214334434223
10	0.045	-100.02648102123801	589.7039993684476	270.32399637336994	-189.56816949436768	421.47852871250194	37.12717360110183	-214.75492995637518	199.4483043862478	25.845205063154545
11	0.05	-100.02220316502213	589.7251272926281	270.33165992005826	-189.56027291553363	421.3966003431769	37.19746288303918	-214.76945921445233	199.35179591648523	25.763977865862692
12	0.055	-100.01786360432402	589.7445815225077	270.33808747265385	-189.55086014246737	421.3143063844336	37.26478971820103	-214.78857207200855	199.25361658462242	25.67861361952321
13	0.06	-100.01345495418418	589.7622276677522	270.34322232195916	-189.53983356387434	421.23197884172407	37.32872404473434	-214.81244079988636	199.1541116227902	25.589290912177727
14	0.065	-100.0089688678692	589.7779311205662	270.34700995835607	-189.527094531182	421.1499685973607	37.38882480416514	-214.8412277968174	199.05365157930936	25.49621580752341
15	0.07	-100.00439599774874	589.791557423475	270.34939829348656	-189.51254360501684	421.06864511897356	37.4446408584798	-214.87508445393684	198.95263228489495	25.39962253532662
16	0.075	-99.99972595742145	589.8029726450671	270.3503378775815	-189.4960808127454	420.9883960897055	37.49571197530056	-214.91415000583893	198.85147472749196	25.299774112190033
17	0.08	-99.99494728521735	589.8120437625099	270.349782111577	-189.4776059162447	420.9096269581132	37.54156988017651	-214.9585503719623	198.75062483223712	25.196962887324332
18	0.085	-99.99004740920135	589.818639049578	270.3476874531732	-189.4570186889714	420.8327604059681	37.5817393747109	-215.00839699229837	198.6505531432622	25.091511008039625
19	0.09	-99.98501261379846	589.8226284688785	270.34401361600766	-189.4342192013025	420.7582357323912	37.61573951893595	-215.0637856616156	198.55175440429977	24.983770799759363
20	0.095	-99.97982800815741	589.8238840668984	270.3387237611349	-189.40910811302854	420.68650815302027	37.64308487602696	-215.12479536657995	198.45474703532162	24.874125055472064
21	0.1	-99.97447749636514	589.8222803704439	270.3317846800275	-189.38158697178895	420.6180480131887	37.663286817119925	-215.1914871303274	198.36007250273502	24.7629872296733
22	0.105	-99.96894374962007	589.8176947829926	270.3231669683377	-189.35155851615286	420.55333991439977	37.67585488366255	-215.26390286920633	198.26829458098308	24.65080153201351
23	0.11	-99.96320818046713	589.8100079794342	270.3128451896894	-189.31892698196629	420.4928817536982	37.68029820438694	-215.34206426655481	198.17999850373917	24.538042916056114
24	0.115	-99.95725091919367	589.7991042976317	270.3007980287962	-189.28359841051	420.4371836758821	37.676126963647135	-215.42597166850896	198.09579000325417	24.425216958766015
25	0.12	-99.95105079247942	589.7848721252061	270.2870084332382	-189.24548095694126	420.3867669388561	37.662853917515235	-215.51560300694888	198.01629423681078	24.31285962659044
26	0.125	-99.94458530438918	589.7672042799113	270.2714637432625	-189.20448519742888	420.34216269280205	37.63999595367894	-215.61091275478293	197.9421545996534	24.201536924263365
27	0.13	-99.9378306197918	589.7459983819487	270.2541558090097	-189.16052443333578	420.30391067423795	37.607075690832446	-215.71183091884012	197.87403142420362	24.09184442276034
28	0.135	-99.93076155028415	589.7211572165542	270.2350810946092	-189.11351499075536	420.27255781644266	37.56362311290325	-215.8182620756902	197.81260056583247	23.984406663153557
29	0.14	-99.92335154269261	589.6925890851817	270.21424076862553	-189.06337651367082	420.24865677814745	37.50917723311221	-215.93008445573292	197.75855187594254	23.879876433466524
30	0.145	-99.91557267022108	589.6602081436066	270.191640780384	-189.010032248978	420.2327643928332	37.443287782524614	-216.04714908089676	197.712587563616	23.77893391600365
31	0.15	-99.90739562630763	589.6239347252796	270.1672919217455	-188.95340932159667	420.2254400414197	37.365516917419264	-216.16927896125776	197.67542044760407	23.68228570303259
32	0.155	-99.89878972124853	589.583695648283	270.1412098739515	-188.89343899788844	420.22724395159423	37.275440939482266	-216.29626835583224	197.64777210097031	23.590663679124823
33	0.16	-99.88972288164148	589.5394245042572	270.1134152392056	-188.83005693560682	420.2387354274902	37.17265202252544	-216.42788210270936	197.6303708912532	23.50482376891305
34	0.165	-99.8801616526964	589.491061927709	270.08393355671166	-188.7632034186234	420.26047101390253	37.05675993913868	-216.56385502357392	197.62394991957552	23.425544549501474
35	0.17	-99.87007120345618	589.4385558441501	270.05279530293706	-188.69282357470448	420.29300259970245	36.92739378041408	-216.7038914075203	197.62924486270555	23.353625727265857
36	0.175	-99.85941533496514	589.3818616955703	270.0200358759269	-188.61886757465766	420.33687546559037	36.78420366162996	-216.84766457888094	197.6469917226558	23.289886479303618
37	0.18	-99.84815649141787	589.3209426418099	269.9856955635458	-188.54129081122397	420.3926262818022	36.62686240655816	-216.99481655358068	197.6779244889969	23.235163660339325
38	0.185	-99.83625577431621	589.2557697364737	269.9498194955831	-188.46005405616046	420.460781061856	36.455067202861294	-217.14495778828484	197.72277271965277	23.190309876455856
39	0.19	-99.82367295965764	589.1863220760987	269.9124575797121	-188.37512359404087	420.54185307888804	36.268541220881104	-217.29766702633623	197.78225904653578	23.156191427605492
40	0.195	-99.81036651817249	589.1125869213932	269.8736644213517	-188.286471331395	420.6363407515786	36.067035187987614	-217.45249124416833	197.8570966129687	23.133686121456513
41	0.2	-99.79629363862347	589.0345597894529	269.833499227538	-188.19407487991452	420.7447255071043	35.85032891056457	-217.60894570154736	197.9479864504185	23.12368096174741
42	0.205	-99.78141025417547	588.9522445159748	269.7920256949717	-188.09791761256884	420.8674696289728	35.618232735652924	-217.76651409862885	198.0556148026408	23.127069714951762
43	0.21	-99.76567107183855	588.8656532866065	269.74931188246507	-187.99798869160298	421.0050140979875	35.37058894426291	-217.9246488424211	198.1806504058842	23.144750359698936
44	0.215	-99.74902960498189	588.774806636694	269.705430068074	-187.89428306752671	421.15777643496284	35.10727306840058	-218.08277142482655	198.32374173434525	23.177622424047897
45	0.22	-99.73143820891111	588.6797334188237	269.6604565912556	-187.78680144834917	421.32614855414363	34.82819512393778	-218.24027291398755	198.48551422057517	23.22658421637057
46	0.225	-99.71284811949619	588.5804707376977	269.614471680455	-187.6755502384669	421.5104946365889	34.53330075158847	-218.39651456019385	198.6665674610294	23.29252995626533
47	0.23	-99.69320949483051	588.4770638520266	269.56755926657866	-187.5605414467753	421.7111490330435	34.22257225844071	-218.55082851712166	198.86747241740528	23.37634681258703
48	0.235	-99.67247145989732	588.369566043279	269.5198067828731	-187.4417925637367	421.9284142060428	33.8960295527343	-218.70251867866907	199.08876862483504	23.478911856345412
49	0.24	-99.65058215421188	588.2580384512862	269.47130495177925	-187.31932640731148	422.1625587211693	33.553730964870134	-218.85086163113147	199.3309614183804	23.601088936884736
50	0.245	-99.62748878240257	588.1425498768602	269.42214755939216	-187.1931709378306	422.41381529750834	33.1957739479893	-218.9951077199305	199.59451918961233	23.7437254904115
51	0.25	-99.6031376676865	588.023176551754	269.3724312182055	-187.0633590420648	422.68237892741854	32.822295651868814	-219.13448222957027	199.8798706853447	23.907649290580295
52	0.255	-99.57747430818922	587.9000018764574	269.3222551188736	-186.92992828692252	422.9684050757479	32.4334733643455	-219.26818667495104	200.18740236082778	24.093665151476465
53	0.26	-99.55044343604952	587.7731161264967	269.27172077177255	-186.79292064338676	423.27200796858097	32.02952481499979	-219.3954002016264	200.5174557998811	24.302551593944486
54	0.265	-99.52198907924382	587.6426161280737	269.220931739189	-186.65238218147636	423.59325898149496	31.610708336404826	-219.51528109204847	200.87032521456416	24.535057486798998
55	0.27	-99.49205462605603	587.5086049040516	269.1699933590106	-186.50836273719278	423.9321851371334	31.17732287887248	-219.6269683743115	201.24625503703447	24.791898675016142
56	0.275	-99.46058289211119	587.3711912914664	269.1190124608315	-186.36091555258446	424.2887677216654	30.729707875302008	-219.72958352937883	201.64543761622716	25.073754607532898
